<svg width="264" height="305" viewBox="0 0 264 305" fill="none" xmlns="http://www.w3.org/2000/svg">
<path d="M212 100L135 254L46 98L212 100Z" fill="url(#paint0_linear_47_136)"/>
<path d="M133 0L212 100L46 98L133 0Z" fill="url(#paint1_linear_47_136)"/>
<path d="M0 76.5L133 0L46 98L0 76.5Z" fill="url(#paint2_radial_47_136)"/>
<path d="M133 0L263 72L212 100L133 0Z" fill="url(#paint3_linear_47_136)"/>
<path d="M0 76.5L46 98L0 229V76.5Z" fill="url(#paint4_linear_47_136)"/>
<path d="M46 98L135 254L0 229L46 98Z" fill="url(#paint5_linear_47_136)"/>
<path d="M212 100L263.5 229L135 254L212 100Z" fill="url(#paint6_linear_47_136)"/>
<path d="M263 72L263.5 229L212 100L263 72Z" fill="url(#paint7_linear_47_136)"/>
<path d="M135 254L134.5 303L0 229L135 254Z" fill="url(#paint8_linear_47_136)"/>
<path d="M135 254L263.5 229L134.5 303L135 254Z" fill="url(#paint9_linear_47_136)"/>
<g style="mix-blend-mode:soft-light" opacity="0.35">
<path d="M51.5 205L133 51L217.5 207L51.5 205Z" fill="url(#paint10_linear_47_136)"/>
<path d="M130.5 305L51.5 205L217.5 207L130.5 305Z" fill="url(#paint11_linear_47_136)"/>
<path d="M263.5 229L130.5 305L217.5 207L263.5 229Z" fill="url(#paint12_radial_47_136)"/>
<path d="M130.5 305L-3.71617e-05 229L51.5 205L130.5 305Z" fill="url(#paint13_linear_47_136)"/>
<path d="M263.5 229L217.5 207L263 72L263.5 229Z" fill="url(#paint14_linear_47_136)"/>
<path d="M217.5 207L133 51L263 72L217.5 207Z" fill="url(#paint15_linear_47_136)"/>
<path d="M51.4999 205L-1.12338e-05 76.5L133 51L51.4999 205Z" fill="url(#paint16_linear_47_136)"/>
<path d="M-3.8147e-06 229L-1.88788e-06 76.5L51.5 205L-3.8147e-06 229Z" fill="url(#paint17_linear_47_136)"/>
<path d="M133 51L133 -3.89383e-06L263 72L133 51Z" fill="url(#paint18_linear_47_136)"/>
<path d="M133 51.0001L0 76.5L133 0.000152588L133 51.0001Z" fill="url(#paint19_linear_47_136)"/>
</g>
<g style="mix-blend-mode:soft-light" opacity="0.35">
<path d="M51.5 205L133 51L217.5 207L51.5 205Z" fill="url(#paint20_linear_47_136)"/>
<path d="M130.5 305L51.5 205L217.5 207L130.5 305Z" fill="url(#paint21_linear_47_136)"/>
<path d="M263.5 229L130.5 305L217.5 207L263.5 229Z" fill="url(#paint22_radial_47_136)"/>
<path d="M130.5 305L-3.71617e-05 229L51.5 205L130.5 305Z" fill="url(#paint23_linear_47_136)"/>
<path d="M263.5 229L217.5 207L263 72L263.5 229Z" fill="url(#paint24_linear_47_136)"/>
<path d="M217.5 207L133 51L263 72L217.5 207Z" fill="url(#paint25_linear_47_136)"/>
<path d="M51.4999 205L-1.12338e-05 76.5L133 51L51.4999 205Z" fill="url(#paint26_linear_47_136)"/>
<path d="M-3.8147e-06 229L-1.88788e-06 76.5L51.5 205L-3.8147e-06 229Z" fill="url(#paint27_linear_47_136)"/>
<path d="M133 51L133 -3.89383e-06L263 72L133 51Z" fill="url(#paint28_linear_47_136)"/>
<path d="M133 51.0001L0 76.5L133 0.000152588L133 51.0001Z" fill="url(#paint29_linear_47_136)"/>
</g>
<g style="mix-blend-mode:overlay">
<path d="M212 100L135 254L46 98L212 100Z" fill="url(#paint30_radial_47_136)"/>
<path d="M133 0L212 100L46 98L133 0Z" fill="url(#paint31_radial_47_136)"/>
<path d="M0 76.5L133 0L46 98L0 76.5Z" fill="url(#paint32_radial_47_136)"/>
<path d="M133 0L263 72L212 100L133 0Z" fill="url(#paint33_radial_47_136)"/>
<path d="M0 76.5L46 98L0 229V76.5Z" fill="url(#paint34_radial_47_136)"/>
<path d="M46 98L135 254L0 229L46 98Z" fill="url(#paint35_radial_47_136)"/>
<path d="M212 100L263.5 229L135 254L212 100Z" fill="url(#paint36_radial_47_136)"/>
<path d="M263 72L263.5 229L212 100L263 72Z" fill="url(#paint37_radial_47_136)"/>
<path d="M135 254L134.5 303L0 229L135 254Z" fill="url(#paint38_radial_47_136)"/>
<path d="M135 254L263.5 229L134.5 303L135 254Z" fill="url(#paint39_radial_47_136)"/>
<g style="mix-blend-mode:soft-light" opacity="0.35">
<path d="M51.5 205L133 51L217.5 207L51.5 205Z" fill="url(#paint40_radial_47_136)"/>
<path d="M130.5 305L51.5 205L217.5 207L130.5 305Z" fill="url(#paint41_radial_47_136)"/>
<path d="M263.5 229L130.5 305L217.5 207L263.5 229Z" fill="url(#paint42_radial_47_136)"/>
<path d="M130.5 305L-3.71617e-05 229L51.5 205L130.5 305Z" fill="url(#paint43_radial_47_136)"/>
<path d="M263.5 229L217.5 207L263 72L263.5 229Z" fill="url(#paint44_radial_47_136)"/>
<path d="M217.5 207L133 51L263 72L217.5 207Z" fill="url(#paint45_radial_47_136)"/>
<path d="M51.4999 205L-1.12338e-05 76.5L133 51L51.4999 205Z" fill="url(#paint46_radial_47_136)"/>
<path d="M-3.8147e-06 229L-1.88788e-06 76.5L51.5 205L-3.8147e-06 229Z" fill="url(#paint47_radial_47_136)"/>
<path d="M133 51L133 -3.89383e-06L263 72L133 51Z" fill="url(#paint48_radial_47_136)"/>
<path d="M133 51.0001L0 76.5L133 0.000152588L133 51.0001Z" fill="url(#paint49_radial_47_136)"/>
</g>
<g style="mix-blend-mode:soft-light" opacity="0.35">
<path d="M51.5 205L133 51L217.5 207L51.5 205Z" fill="url(#paint50_radial_47_136)"/>
<path d="M130.5 305L51.5 205L217.5 207L130.5 305Z" fill="url(#paint51_radial_47_136)"/>
<path d="M263.5 229L130.5 305L217.5 207L263.5 229Z" fill="url(#paint52_radial_47_136)"/>
<path d="M130.5 305L-3.71617e-05 229L51.5 205L130.5 305Z" fill="url(#paint53_radial_47_136)"/>
<path d="M263.5 229L217.5 207L263 72L263.5 229Z" fill="url(#paint54_radial_47_136)"/>
<path d="M217.5 207L133 51L263 72L217.5 207Z" fill="url(#paint55_radial_47_136)"/>
<path d="M51.4999 205L-1.12338e-05 76.5L133 51L51.4999 205Z" fill="url(#paint56_radial_47_136)"/>
<path d="M-3.8147e-06 229L-1.88788e-06 76.5L51.5 205L-3.8147e-06 229Z" fill="url(#paint57_radial_47_136)"/>
<path d="M133 51L133 -3.89383e-06L263 72L133 51Z" fill="url(#paint58_radial_47_136)"/>
<path d="M133 51.0001L0 76.5L133 0.000152588L133 51.0001Z" fill="url(#paint59_radial_47_136)"/>
</g>
</g>
<defs>
<linearGradient id="paint0_linear_47_136" x1="129.25" y1="98" x2="129.25" y2="254" gradientUnits="userSpaceOnUse">
<stop stop-color="#397C8B"/>
<stop offset="1" stop-color="#92C5C5"/>
</linearGradient>
<linearGradient id="paint1_linear_47_136" x1="129.208" y1="1" x2="129.208" y2="100" gradientUnits="userSpaceOnUse">
<stop stop-color="#82C4CB"/>
<stop offset="1" stop-color="#DAF7F9"/>
</linearGradient>
<radialGradient id="paint2_radial_47_136" cx="0" cy="0" r="1" gradientUnits="userSpaceOnUse" gradientTransform="translate(66.25 49) rotate(90) scale(49 66.75)">
<stop stop-color="#0B636D"/>
<stop offset="1" stop-color="#61999A"/>
</radialGradient>
<linearGradient id="paint3_linear_47_136" x1="176" y1="50" x2="209.5" y2="28" gradientUnits="userSpaceOnUse">
<stop stop-color="#056F7D"/>
<stop offset="1" stop-color="#82C4CB"/>
</linearGradient>
<linearGradient id="paint4_linear_47_136" x1="23" y1="76.5" x2="23" y2="229" gradientUnits="userSpaceOnUse">
<stop stop-color="#086068"/>
<stop offset="1" stop-color="#4C8888"/>
</linearGradient>
<linearGradient id="paint5_linear_47_136" x1="67.5" y1="98" x2="67.5" y2="254" gradientUnits="userSpaceOnUse">
<stop stop-color="#82C4CB"/>
<stop offset="1" stop-color="#19777F"/>
</linearGradient>
<linearGradient id="paint6_linear_47_136" x1="218" y1="144" x2="155" y2="277.5" gradientUnits="userSpaceOnUse">
<stop stop-color="#97C9CA"/>
<stop offset="0.9999" stop-color="#408382"/>
<stop offset="1" stop-color="#408382" stop-opacity="0"/>
<stop offset="1" stop-color="#0B636D"/>
</linearGradient>
<linearGradient id="paint7_linear_47_136" x1="212" y1="102.5" x2="263" y2="181.5" gradientUnits="userSpaceOnUse">
<stop stop-color="#7EA0B7"/>
<stop offset="1" stop-color="#97C9CA"/>
</linearGradient>
<linearGradient id="paint8_linear_47_136" x1="67.5" y1="229" x2="67.5" y2="303" gradientUnits="userSpaceOnUse">
<stop stop-color="#82C4CB"/>
<stop offset="1" stop-color="#61999A"/>
</linearGradient>
<linearGradient id="paint9_linear_47_136" x1="199" y1="229" x2="199" y2="303" gradientUnits="userSpaceOnUse">
<stop stop-color="#97C9CA"/>
<stop offset="1" stop-color="#7EA0B7"/>
</linearGradient>
<linearGradient id="paint10_linear_47_136" x1="134.25" y1="207" x2="134.25" y2="51" gradientUnits="userSpaceOnUse">
<stop stop-color="#397C8B"/>
<stop offset="1" stop-color="#92C5C5"/>
</linearGradient>
<linearGradient id="paint11_linear_47_136" x1="134.292" y1="304" x2="134.292" y2="205" gradientUnits="userSpaceOnUse">
<stop stop-color="#82C4CB"/>
<stop offset="1" stop-color="#DAF7F9"/>
</linearGradient>
<radialGradient id="paint12_radial_47_136" cx="0" cy="0" r="1" gradientUnits="userSpaceOnUse" gradientTransform="translate(197.25 256) rotate(-90) scale(49 66.75)">
<stop stop-color="#0B636D"/>
<stop offset="1" stop-color="#61999A"/>
</radialGradient>
<linearGradient id="paint13_linear_47_136" x1="87.5" y1="255" x2="54" y2="277" gradientUnits="userSpaceOnUse">
<stop stop-color="#056F7D"/>
<stop offset="1" stop-color="#82C4CB"/>
</linearGradient>
<linearGradient id="paint14_linear_47_136" x1="240.5" y1="228.5" x2="240.5" y2="76" gradientUnits="userSpaceOnUse">
<stop stop-color="#086068"/>
<stop offset="1" stop-color="#4C8888"/>
</linearGradient>
<linearGradient id="paint15_linear_47_136" x1="196" y1="207" x2="196" y2="51" gradientUnits="userSpaceOnUse">
<stop stop-color="#82C4CB"/>
<stop offset="1" stop-color="#19777F"/>
</linearGradient>
<linearGradient id="paint16_linear_47_136" x1="45.5" y1="161" x2="108.5" y2="27.5" gradientUnits="userSpaceOnUse">
<stop stop-color="#97C9CA"/>
<stop offset="0.9999" stop-color="#408382"/>
<stop offset="1" stop-color="#408382" stop-opacity="0"/>
<stop offset="1" stop-color="#0B636D"/>
</linearGradient>
<linearGradient id="paint17_linear_47_136" x1="52" y1="202.889" x2="1.71333" y2="124.754" gradientUnits="userSpaceOnUse">
<stop stop-color="#7EA0B7"/>
<stop offset="1" stop-color="#97C9CA"/>
</linearGradient>
<linearGradient id="paint18_linear_47_136" x1="198.5" y1="76" x2="198.5" y2="5.66857e-06" gradientUnits="userSpaceOnUse">
<stop stop-color="#82C4CB"/>
<stop offset="1" stop-color="#61999A"/>
</linearGradient>
<linearGradient id="paint19_linear_47_136" x1="64.5" y1="76" x2="64.5" y2="1.99999" gradientUnits="userSpaceOnUse">
<stop stop-color="#97C9CA"/>
<stop offset="1" stop-color="#7EA0B7"/>
</linearGradient>
<linearGradient id="paint20_linear_47_136" x1="134.25" y1="207" x2="134.25" y2="51" gradientUnits="userSpaceOnUse">
<stop stop-color="#397C8B"/>
<stop offset="1" stop-color="#92C5C5"/>
</linearGradient>
<linearGradient id="paint21_linear_47_136" x1="134.292" y1="304" x2="134.292" y2="205" gradientUnits="userSpaceOnUse">
<stop stop-color="#82C4CB"/>
<stop offset="1" stop-color="#DAF7F9"/>
</linearGradient>
<radialGradient id="paint22_radial_47_136" cx="0" cy="0" r="1" gradientUnits="userSpaceOnUse" gradientTransform="translate(197.25 256) rotate(-90) scale(49 66.75)">
<stop stop-color="#0B636D"/>
<stop offset="1" stop-color="#61999A"/>
</radialGradient>
<linearGradient id="paint23_linear_47_136" x1="87.5" y1="255" x2="54" y2="277" gradientUnits="userSpaceOnUse">
<stop stop-color="#056F7D"/>
<stop offset="1" stop-color="#82C4CB"/>
</linearGradient>
<linearGradient id="paint24_linear_47_136" x1="240.5" y1="228.5" x2="240.5" y2="76" gradientUnits="userSpaceOnUse">
<stop stop-color="#086068"/>
<stop offset="1" stop-color="#4C8888"/>
</linearGradient>
<linearGradient id="paint25_linear_47_136" x1="196" y1="207" x2="196" y2="51" gradientUnits="userSpaceOnUse">
<stop stop-color="#82C4CB"/>
<stop offset="1" stop-color="#19777F"/>
</linearGradient>
<linearGradient id="paint26_linear_47_136" x1="45.5" y1="161" x2="108.5" y2="27.5" gradientUnits="userSpaceOnUse">
<stop stop-color="#97C9CA"/>
<stop offset="0.9999" stop-color="#408382"/>
<stop offset="1" stop-color="#408382" stop-opacity="0"/>
<stop offset="1" stop-color="#0B636D"/>
</linearGradient>
<linearGradient id="paint27_linear_47_136" x1="52" y1="202.889" x2="1.71333" y2="124.754" gradientUnits="userSpaceOnUse">
<stop stop-color="#7EA0B7"/>
<stop offset="1" stop-color="#97C9CA"/>
</linearGradient>
<linearGradient id="paint28_linear_47_136" x1="198.5" y1="76" x2="198.5" y2="5.66857e-06" gradientUnits="userSpaceOnUse">
<stop stop-color="#82C4CB"/>
<stop offset="1" stop-color="#61999A"/>
</linearGradient>
<linearGradient id="paint29_linear_47_136" x1="64.5" y1="76" x2="64.5" y2="1.99999" gradientUnits="userSpaceOnUse">
<stop stop-color="#97C9CA"/>
<stop offset="1" stop-color="#7EA0B7"/>
</linearGradient>
<radialGradient id="paint30_radial_47_136" cx="0" cy="0" r="1" gradientUnits="userSpaceOnUse" gradientTransform="translate(128.688 176) rotate(90) scale(78 83.312)">
<stop stop-color="#0B266D"/>
<stop offset="1" stop-color="#616A9A"/>
</radialGradient>
<radialGradient id="paint31_radial_47_136" cx="0" cy="0" r="1" gradientUnits="userSpaceOnUse" gradientTransform="translate(128.688 50) rotate(90) scale(50 83.312)">
<stop stop-color="#0B266D"/>
<stop offset="1" stop-color="#616A9A"/>
</radialGradient>
<radialGradient id="paint32_radial_47_136" cx="0" cy="0" r="1" gradientUnits="userSpaceOnUse" gradientTransform="translate(66.25 49) rotate(90) scale(49 66.75)">
<stop stop-color="#0B266D"/>
<stop offset="1" stop-color="#616A9A"/>
</radialGradient>
<radialGradient id="paint33_radial_47_136" cx="0" cy="0" r="1" gradientUnits="userSpaceOnUse" gradientTransform="translate(197.756 50) rotate(90) scale(50 65.2444)">
<stop stop-color="#0B266D"/>
<stop offset="1" stop-color="#616A9A"/>
</radialGradient>
<radialGradient id="paint34_radial_47_136" cx="0" cy="0" r="1" gradientUnits="userSpaceOnUse" gradientTransform="translate(22.9135 152.75) rotate(90) scale(76.25 23.0865)">
<stop stop-color="#0B266D"/>
<stop offset="1" stop-color="#616A9A"/>
</radialGradient>
<radialGradient id="paint35_radial_47_136" cx="0" cy="0" r="1" gradientUnits="userSpaceOnUse" gradientTransform="translate(67.2462 176) rotate(90) scale(78 67.7538)">
<stop stop-color="#0B266D"/>
<stop offset="1" stop-color="#616A9A"/>
</radialGradient>
<radialGradient id="paint36_radial_47_136" cx="0" cy="0" r="1" gradientUnits="userSpaceOnUse" gradientTransform="translate(199.008 177) rotate(90) scale(77 64.4915)">
<stop stop-color="#0B266D"/>
<stop offset="1" stop-color="#616A9A"/>
</radialGradient>
<radialGradient id="paint37_radial_47_136" cx="0" cy="0" r="1" gradientUnits="userSpaceOnUse" gradientTransform="translate(237.653 150.5) rotate(90) scale(78.5 25.8468)">
<stop stop-color="#0B266D"/>
<stop offset="1" stop-color="#616A9A"/>
</radialGradient>
<radialGradient id="paint38_radial_47_136" cx="0" cy="0" r="1" gradientUnits="userSpaceOnUse" gradientTransform="translate(67.2462 266) rotate(90) scale(37 67.7538)">
<stop stop-color="#0B266D"/>
<stop offset="1" stop-color="#616A9A"/>
</radialGradient>
<radialGradient id="paint39_radial_47_136" cx="0" cy="0" r="1" gradientUnits="userSpaceOnUse" gradientTransform="translate(198.758 266) rotate(90) scale(37 64.7425)">
<stop stop-color="#0B266D"/>
<stop offset="1" stop-color="#616A9A"/>
</radialGradient>
<radialGradient id="paint40_radial_47_136" cx="0" cy="0" r="1" gradientUnits="userSpaceOnUse" gradientTransform="translate(134.812 129) rotate(-90) scale(78 83.312)">
<stop stop-color="#0B266D"/>
<stop offset="1" stop-color="#616A9A"/>
</radialGradient>
<radialGradient id="paint41_radial_47_136" cx="0" cy="0" r="1" gradientUnits="userSpaceOnUse" gradientTransform="translate(134.812 255) rotate(-90) scale(50 83.312)">
<stop stop-color="#0B266D"/>
<stop offset="1" stop-color="#616A9A"/>
</radialGradient>
<radialGradient id="paint42_radial_47_136" cx="0" cy="0" r="1" gradientUnits="userSpaceOnUse" gradientTransform="translate(197.25 256) rotate(-90) scale(49 66.75)">
<stop stop-color="#0B266D"/>
<stop offset="1" stop-color="#616A9A"/>
</radialGradient>
<radialGradient id="paint43_radial_47_136" cx="0" cy="0" r="1" gradientUnits="userSpaceOnUse" gradientTransform="translate(65.4953 255) rotate(-90) scale(50 65.4953)">
<stop stop-color="#0B266D"/>
<stop offset="1" stop-color="#616A9A"/>
</radialGradient>
<radialGradient id="paint44_radial_47_136" cx="0" cy="0" r="1" gradientUnits="userSpaceOnUse" gradientTransform="translate(240.586 150.5) rotate(-90) scale(78.5 23.0865)">
<stop stop-color="#0B266D"/>
<stop offset="1" stop-color="#616A9A"/>
</radialGradient>
<radialGradient id="paint45_radial_47_136" cx="0" cy="0" r="1" gradientUnits="userSpaceOnUse" gradientTransform="translate(198.244 129) rotate(-90) scale(78 65.2444)">
<stop stop-color="#0B266D"/>
<stop offset="1" stop-color="#616A9A"/>
</radialGradient>
<radialGradient id="paint46_radial_47_136" cx="0" cy="0" r="1" gradientUnits="userSpaceOnUse" gradientTransform="translate(66.75 128) rotate(-90) scale(77 66.75)">
<stop stop-color="#0B266D"/>
<stop offset="1" stop-color="#616A9A"/>
</radialGradient>
<radialGradient id="paint47_radial_47_136" cx="0" cy="0" r="1" gradientUnits="userSpaceOnUse" gradientTransform="translate(25.8468 152.75) rotate(-90) scale(76.25 25.8468)">
<stop stop-color="#0B266D"/>
<stop offset="1" stop-color="#616A9A"/>
</radialGradient>
<radialGradient id="paint48_radial_47_136" cx="0" cy="0" r="1" gradientUnits="userSpaceOnUse" gradientTransform="translate(198.244 36) rotate(-90) scale(36 65.2444)">
<stop stop-color="#0B266D"/>
<stop offset="1" stop-color="#616A9A"/>
</radialGradient>
<radialGradient id="paint49_radial_47_136" cx="0" cy="0" r="1" gradientUnits="userSpaceOnUse" gradientTransform="translate(66.75 38.2501) rotate(-90) scale(38.2499 66.75)">
<stop stop-color="#0B266D"/>
<stop offset="1" stop-color="#616A9A"/>
</radialGradient>
<radialGradient id="paint50_radial_47_136" cx="0" cy="0" r="1" gradientUnits="userSpaceOnUse" gradientTransform="translate(134.812 129) rotate(-90) scale(78 83.312)">
<stop stop-color="#0B266D"/>
<stop offset="1" stop-color="#616A9A"/>
</radialGradient>
<radialGradient id="paint51_radial_47_136" cx="0" cy="0" r="1" gradientUnits="userSpaceOnUse" gradientTransform="translate(134.812 255) rotate(-90) scale(50 83.312)">
<stop stop-color="#0B266D"/>
<stop offset="1" stop-color="#616A9A"/>
</radialGradient>
<radialGradient id="paint52_radial_47_136" cx="0" cy="0" r="1" gradientUnits="userSpaceOnUse" gradientTransform="translate(197.25 256) rotate(-90) scale(49 66.75)">
<stop stop-color="#0B266D"/>
<stop offset="1" stop-color="#616A9A"/>
</radialGradient>
<radialGradient id="paint53_radial_47_136" cx="0" cy="0" r="1" gradientUnits="userSpaceOnUse" gradientTransform="translate(65.4953 255) rotate(-90) scale(50 65.4953)">
<stop stop-color="#0B266D"/>
<stop offset="1" stop-color="#616A9A"/>
</radialGradient>
<radialGradient id="paint54_radial_47_136" cx="0" cy="0" r="1" gradientUnits="userSpaceOnUse" gradientTransform="translate(240.586 150.5) rotate(-90) scale(78.5 23.0865)">
<stop stop-color="#0B266D"/>
<stop offset="1" stop-color="#616A9A"/>
</radialGradient>
<radialGradient id="paint55_radial_47_136" cx="0" cy="0" r="1" gradientUnits="userSpaceOnUse" gradientTransform="translate(198.244 129) rotate(-90) scale(78 65.2444)">
<stop stop-color="#0B266D"/>
<stop offset="1" stop-color="#616A9A"/>
</radialGradient>
<radialGradient id="paint56_radial_47_136" cx="0" cy="0" r="1" gradientUnits="userSpaceOnUse" gradientTransform="translate(66.75 128) rotate(-90) scale(77 66.75)">
<stop stop-color="#0B266D"/>
<stop offset="1" stop-color="#616A9A"/>
</radialGradient>
<radialGradient id="paint57_radial_47_136" cx="0" cy="0" r="1" gradientUnits="userSpaceOnUse" gradientTransform="translate(25.8468 152.75) rotate(-90) scale(76.25 25.8468)">
<stop stop-color="#0B266D"/>
<stop offset="1" stop-color="#616A9A"/>
</radialGradient>
<radialGradient id="paint58_radial_47_136" cx="0" cy="0" r="1" gradientUnits="userSpaceOnUse" gradientTransform="translate(198.244 36) rotate(-90) scale(36 65.2444)">
<stop stop-color="#0B266D"/>
<stop offset="1" stop-color="#616A9A"/>
</radialGradient>
<radialGradient id="paint59_radial_47_136" cx="0" cy="0" r="1" gradientUnits="userSpaceOnUse" gradientTransform="translate(66.75 38.2501) rotate(-90) scale(38.2499 66.75)">
<stop stop-color="#0B266D"/>
<stop offset="1" stop-color="#616A9A"/>
</radialGradient>
</defs>
</svg>
