<svg width="1050" height="305" viewBox="0 0 1050 305" fill="none" xmlns="http://www.w3.org/2000/svg">
<path d="M376.933 90.9411V152.074H391.28C400.013 152.074 405.974 150.965 409.162 148.747C412.489 146.39 414.222 141.885 414.361 135.231C417.688 134.261 421.015 133.775 424.342 133.775C424.064 138.489 423.926 146.043 423.926 156.44C423.926 167.807 424.064 175.847 424.342 180.56C420.599 180.56 417.41 180.214 414.777 179.521C414.222 172.312 412.281 167.461 408.955 164.965C405.766 162.332 399.875 161.015 391.28 161.015H376.933V192.621C376.933 198.581 377.557 203.156 378.804 206.344C380.052 209.394 381.923 211.542 384.418 212.79C387.052 213.899 390.726 214.592 395.439 214.869C396.132 216.81 396.479 219.79 396.479 223.811C390.102 223.395 381.369 223.187 370.279 223.187C356.833 223.187 347.406 223.395 342 223.811C342 219.79 342.347 216.81 343.04 214.869C348.585 214.592 352.327 213.275 354.268 210.919C356.347 208.423 357.387 203.71 357.387 196.779V109.031C357.387 102.1 356.347 97.4564 354.268 95.0998C352.327 92.6046 348.585 91.2184 343.04 90.9411C342.347 89.0004 342 86.02 342 82C351.149 82.4159 362.724 82.6238 376.725 82.6238C401.538 82.6238 420.807 82.4159 434.53 82C435.917 97.2484 437.372 108.2 438.897 114.853C436.818 116.517 433.699 117.349 429.54 117.349C428.847 109.586 426.005 103.279 421.015 98.4267C416.163 93.4363 407.638 90.9411 395.439 90.9411H376.933Z" fill="#404040"/>
<path d="M484.262 215.801C489.466 215.801 493.563 215.301 496.552 214.299C499.653 213.187 502.089 211.518 503.86 209.294C505.742 206.958 507.514 203.732 509.175 199.616C512.164 200.172 514.6 201.396 516.483 203.287C514.49 208.515 512.995 215.245 511.998 223.476L482.601 223.31C466.657 223.31 453.813 223.421 444.069 223.643C444.069 220.195 444.346 217.692 444.9 216.135C447.557 215.912 449.605 215.467 451.045 214.8C452.484 214.133 453.481 212.909 454.034 211.129C454.699 209.349 455.031 206.68 455.031 203.12V159.237C455.031 156.011 454.699 153.564 454.034 151.895C453.481 150.227 452.484 149.059 451.045 148.391C449.716 147.724 447.668 147.279 444.9 147.057C444.457 145.277 444.235 142.774 444.235 139.548C452.207 139.771 458.353 139.882 462.671 139.882C467.21 139.882 473.356 139.771 481.106 139.548C481.106 142.885 480.83 145.388 480.276 147.057C476.401 147.279 473.743 148.225 472.304 149.893C470.975 151.45 470.311 154.621 470.311 159.404V202.786C470.311 206.346 470.643 209.071 471.307 210.962C471.972 212.742 473.19 214.021 474.961 214.8C476.843 215.467 479.612 215.801 483.265 215.801H484.262Z" fill="#404040"/>
<path d="M567.379 224.478C558.3 224.478 551.103 223.421 545.788 221.307C540.584 219.083 536.819 215.801 534.494 211.463C532.279 207.013 531.172 201.285 531.172 194.277V159.571C531.172 156.122 530.951 153.564 530.508 151.895C530.065 150.227 529.235 149.115 528.017 148.558C526.909 147.891 525.082 147.39 522.536 147.057C521.982 145.277 521.705 142.774 521.705 139.548C527.02 139.771 532.778 139.882 538.978 139.882C545.179 139.882 551.269 139.771 557.248 139.548C557.248 142.44 557.026 144.943 556.583 147.057C553.483 147.39 551.269 147.891 549.94 148.558C548.611 149.115 547.67 150.227 547.117 151.895C546.674 153.453 546.452 156.011 546.452 159.571V192.274C546.452 200.172 548.224 206.123 551.767 210.128C555.421 214.133 561.677 216.135 570.535 216.135C573.192 216.135 575.905 215.745 578.673 214.967C581.441 214.077 583.822 212.798 585.815 211.129C587.918 209.238 589.413 206.735 590.299 203.621C591.295 200.395 591.794 195.667 591.794 189.438V163.242C591.794 159.015 591.517 155.844 590.963 153.731C590.52 151.506 589.579 149.949 588.14 149.059C586.7 148.058 584.541 147.39 581.662 147.057C581.22 144.387 580.998 141.884 580.998 139.548C585.427 139.771 590.078 139.882 594.949 139.882C599.268 139.882 603.973 139.771 609.067 139.548C609.067 142.329 608.79 144.832 608.236 147.057C604.804 147.39 602.479 148.614 601.261 150.727C600.153 152.841 599.6 156.79 599.6 162.574V189.605C599.6 197.058 598.991 202.953 597.773 207.291C596.666 211.518 594.451 214.967 591.129 217.636C585.593 222.197 577.676 224.478 567.379 224.478Z" fill="#404040"/>
<path d="M670.245 224.811C660.723 224.811 652.308 223.031 645 219.472C637.692 215.912 631.99 210.907 627.893 204.455C623.907 198.003 621.914 190.495 621.914 181.929C621.914 173.475 623.907 165.967 627.893 159.404C631.99 152.841 637.692 147.78 645 144.22C652.418 140.549 660.944 138.714 670.577 138.714C680.099 138.714 688.514 140.494 695.822 144.053C703.13 147.613 708.777 152.674 712.763 159.237C716.86 165.689 718.908 173.142 718.908 181.596C718.908 190.161 716.86 197.725 712.763 204.288C708.777 210.74 703.075 215.801 695.656 219.472C688.348 223.031 679.878 224.811 670.245 224.811ZM672.57 217.136C681.539 217.136 688.625 214.133 693.829 208.126C699.144 202.119 701.801 194.11 701.801 184.099C701.801 176.868 700.362 170.416 697.483 164.743C694.604 158.959 690.563 154.454 685.359 151.228C680.265 148.002 674.508 146.389 668.086 146.389C659.117 146.389 652.031 149.448 646.827 155.566C641.623 161.573 639.021 169.527 639.021 179.427C639.021 186.879 640.46 193.498 643.339 199.282C646.218 204.955 650.204 209.349 655.297 212.464C660.39 215.579 666.148 217.136 672.57 217.136Z" fill="#404040"/>
<path d="M795.841 203.787C798.831 208.237 801.876 211.407 804.976 213.298C808.187 215.078 812.118 216.079 816.768 216.302C816.768 219.528 816.546 221.863 816.104 223.31C806.692 223.31 798.72 223.699 792.187 224.478C791.412 223.143 789.917 220.807 787.703 217.47L780.229 205.289C776.132 198.392 770.707 192.775 763.952 188.437L758.638 188.604L753.821 188.437V203.621C753.821 207.291 754.098 210.017 754.652 211.797C755.205 213.576 756.091 214.8 757.309 215.467C758.638 216.135 760.631 216.524 763.288 216.635C763.731 217.97 763.952 220.306 763.952 223.643C759.856 223.421 753.821 223.31 745.849 223.31C739.981 223.31 733.946 223.421 727.746 223.643C727.746 220.529 728.023 218.193 728.576 216.635C731.344 216.413 733.393 215.968 734.721 215.301C736.161 214.633 737.157 213.465 737.711 211.797C738.264 210.128 738.541 207.625 738.541 204.288V159.07C738.541 154.287 737.877 151.117 736.548 149.559C735.22 148.002 732.562 147.112 728.576 146.89C728.023 145.221 727.746 142.774 727.746 139.548C731.953 139.771 738.043 139.882 746.015 139.882L757.973 139.715C763.731 139.493 768.105 139.381 771.094 139.381C781.724 139.381 789.751 141.439 795.177 145.555C800.602 149.671 803.315 154.954 803.315 161.406C803.315 167.858 801.267 173.197 797.17 177.424C793.073 181.54 787.371 184.321 780.063 185.767C782.831 187.436 785.101 189.382 786.872 191.607C788.755 193.721 791.744 197.781 795.841 203.787ZM760.132 180.261C768.105 180.261 774.637 178.87 779.731 176.089C784.824 173.197 787.371 169.026 787.371 163.575C787.371 152.229 779.62 146.556 764.119 146.556C760.575 146.556 757.143 146.89 753.821 147.557V179.76C756.146 180.094 758.25 180.261 760.132 180.261Z" fill="#404040"/>
<path d="M830.576 223.643C830.576 220.195 830.853 217.692 831.407 216.135C834.175 215.912 836.223 215.467 837.552 214.8C838.991 214.133 839.988 212.965 840.542 211.296C841.095 209.627 841.372 207.125 841.372 203.787V159.237C841.372 156.011 841.095 153.564 840.542 151.895C839.988 150.227 838.991 149.059 837.552 148.391C836.223 147.724 834.175 147.279 831.407 147.057C830.853 145.388 830.576 142.885 830.576 139.548C837.663 139.771 843.863 139.882 849.178 139.882C853.607 139.882 859.697 139.771 867.448 139.548C867.448 142.996 867.226 145.499 866.783 147.057C862.797 147.279 860.084 148.169 858.645 149.726C857.316 151.284 856.652 154.454 856.652 159.237V203.787C856.652 208.571 857.316 211.797 858.645 213.465C860.084 215.022 862.797 215.912 866.783 216.135C867.226 217.803 867.448 220.306 867.448 223.643C859.918 223.421 853.829 223.31 849.178 223.31C843.642 223.31 837.441 223.421 830.576 223.643Z" fill="#404040"/>
<path d="M959.951 139.548C959.619 145.555 960.006 152.785 961.114 161.239C958.789 162.24 956.076 162.741 952.975 162.741C952.754 157.402 951.315 153.453 948.657 150.894C946.111 148.336 942.069 147.057 936.533 147.057H929.225V204.288C929.225 207.736 929.502 210.295 930.056 211.963C930.72 213.521 931.827 214.633 933.377 215.301C935.038 215.968 937.529 216.413 940.851 216.635C941.405 217.97 941.682 220.306 941.682 223.643C933.488 223.421 926.789 223.31 921.585 223.31C915.163 223.31 908.298 223.421 900.991 223.643C900.991 220.306 901.267 217.97 901.821 216.635C905.143 216.413 907.634 215.968 909.295 215.301C911.066 214.633 912.284 213.465 912.949 211.797C913.613 210.128 913.945 207.625 913.945 204.288V147.057H907.136C902.707 147.057 899.274 147.668 896.838 148.892C894.513 150.004 892.797 151.617 891.69 153.731C890.582 155.844 889.641 158.848 888.866 162.741C885.323 162.741 882.721 162.24 881.06 161.239C882.721 153.675 883.551 146.445 883.551 139.548C889.309 139.771 901.987 139.882 921.585 139.882C941.516 139.882 954.304 139.771 959.951 139.548Z" fill="#404040"/>
<path d="M1042.69 199.616C1045.68 200.172 1048.12 201.396 1050 203.287C1048.01 208.515 1046.51 215.245 1045.52 223.476L1013.46 223.31C997.516 223.31 984.672 223.421 974.929 223.643C974.929 220.195 975.206 217.692 975.759 216.135C978.527 215.912 980.576 215.467 981.904 214.8C983.344 214.133 984.34 212.909 984.894 211.129C985.448 209.349 985.724 206.68 985.724 203.12V159.237C985.724 156.011 985.392 153.564 984.728 151.895C984.174 150.227 983.178 149.059 981.738 148.391C980.41 147.724 978.417 147.279 975.759 147.057C975.206 145.388 974.929 142.885 974.929 139.548C982.901 139.771 991.593 139.882 1001 139.882C1021.38 139.882 1035 139.771 1041.86 139.548C1043.08 150.004 1044.13 156.901 1045.02 160.238C1043.13 161.462 1040.64 162.074 1037.54 162.074C1037.1 157.402 1035.16 153.731 1031.73 151.061C1028.41 148.391 1022.48 147.057 1013.96 147.057H1001V177.758H1009.31C1015.18 177.758 1019.22 177.091 1021.43 175.756C1023.76 174.421 1024.98 171.974 1025.09 168.414C1027.52 167.635 1030.07 167.246 1032.73 167.246C1032.51 170.027 1032.39 174.699 1032.39 181.262C1032.39 188.381 1032.51 193.22 1032.73 195.778C1029.74 195.778 1027.3 195.445 1025.42 194.777C1025.09 191.106 1023.76 188.604 1021.43 187.269C1019.22 185.934 1015.18 185.267 1009.31 185.267H1001V202.786C1001 206.346 1001.34 209.071 1002 210.962C1002.78 212.742 1004.05 214.021 1005.82 214.8C1007.7 215.467 1010.47 215.801 1014.13 215.801H1015.12C1021.54 215.801 1026.47 215.245 1029.9 214.133C1033.45 213.02 1036.05 211.407 1037.71 209.294C1039.48 207.069 1041.14 203.843 1042.69 199.616Z" fill="#404040"/>
<path d="M895 122.995V82H900.503V122.995H895ZM920.324 122.995L906.736 104.843H913.193L927.007 122.995H920.324ZM898.425 108.25V103.391H909.431C911.153 103.391 912.632 103.037 913.867 102.33C915.102 101.622 916.057 100.654 916.731 99.4255C917.405 98.1596 917.741 96.7261 917.741 95.125C917.741 93.5239 917.405 92.109 916.731 90.8803C916.057 89.6144 915.102 88.6277 913.867 87.9202C912.632 87.1755 911.153 86.8032 909.431 86.8032H898.425V82H908.42C911.415 82 914.035 82.4468 916.282 83.3404C918.528 84.234 920.268 85.6117 921.504 87.4734C922.739 89.3351 923.357 91.7367 923.357 94.6782V95.5718C923.357 98.5133 922.72 100.915 921.447 102.777C920.212 104.638 918.471 106.016 916.225 106.91C914.017 107.803 911.415 108.25 908.42 108.25H898.425Z" fill="#068FB4"/>
<path d="M945.729 124C943.109 124 940.844 123.553 938.935 122.66C937.026 121.766 935.472 120.593 934.274 119.141C933.076 117.652 932.178 115.995 931.579 114.17C931.017 112.346 930.737 110.484 930.737 108.585V107.58C930.737 105.644 931.017 103.763 931.579 101.939C932.178 100.114 933.076 98.4761 934.274 97.0239C935.472 95.5346 936.988 94.3617 938.823 93.5053C940.694 92.6117 942.884 92.1649 945.392 92.1649C948.649 92.1649 951.326 92.8723 953.422 94.2872C955.556 95.6649 957.128 97.4521 958.139 99.6489C959.187 101.846 959.711 104.191 959.711 106.686V109.088H933.095V105.066H955.78L954.545 107.245C954.545 105.122 954.208 103.298 953.534 101.771C952.86 100.207 951.85 98.9973 950.502 98.141C949.154 97.2846 947.451 96.8564 945.392 96.8564C943.259 96.8564 941.48 97.3404 940.058 98.3085C938.673 99.2766 937.625 100.598 936.913 102.274C936.24 103.949 935.903 105.886 935.903 108.082C935.903 110.205 936.24 112.122 936.913 113.835C937.625 115.511 938.71 116.851 940.17 117.856C941.63 118.824 943.483 119.309 945.729 119.309C948.088 119.309 949.997 118.787 951.457 117.745C952.954 116.702 953.852 115.492 954.152 114.114H959.206C958.794 116.162 957.97 117.931 956.735 119.42C955.5 120.91 953.946 122.045 952.074 122.827C950.203 123.609 948.088 124 945.729 124Z" fill="#068FB4"/>
<path d="M985.502 122.995V114.059H984.603V103.726C984.603 101.678 984.061 100.133 982.975 99.0904C981.927 98.0479 980.373 97.5266 978.314 97.5266C977.154 97.5266 975.956 97.5452 974.721 97.5824C973.485 97.6197 972.306 97.6569 971.183 97.6941C970.06 97.7314 969.087 97.7872 968.263 97.8617V93.1702C969.087 93.0957 969.948 93.0399 970.846 93.0027C971.782 92.9282 972.737 92.891 973.71 92.891C974.683 92.8537 975.619 92.8351 976.517 92.8351C979.587 92.8351 982.095 93.2074 984.042 93.9521C985.988 94.6596 987.43 95.8324 988.366 97.4707C989.301 99.109 989.769 101.324 989.769 104.117V122.995H985.502ZM975.675 123.777C973.429 123.777 971.483 123.404 969.835 122.66C968.226 121.878 966.972 120.761 966.073 119.309C965.212 117.856 964.782 116.106 964.782 114.059C964.782 111.936 965.25 110.168 966.186 108.753C967.159 107.338 968.563 106.277 970.397 105.569C972.231 104.824 974.44 104.452 977.023 104.452H985.165V108.473H976.798C974.627 108.473 972.961 108.995 971.801 110.037C970.64 111.08 970.06 112.42 970.06 114.059C970.06 115.697 970.64 117.019 971.801 118.024C972.961 119.029 974.627 119.532 976.798 119.532C978.071 119.532 979.288 119.309 980.448 118.862C981.609 118.378 982.563 117.596 983.312 116.516C984.098 115.399 984.528 113.872 984.603 111.936L986.063 114.059C985.876 116.181 985.352 117.968 984.491 119.42C983.667 120.835 982.507 121.915 981.01 122.66C979.55 123.404 977.772 123.777 975.675 123.777Z" fill="#068FB4"/>
<path d="M1012.52 124C1009.94 124 1007.69 123.553 1005.78 122.66C1003.91 121.766 1002.36 120.574 1001.12 119.085C999.888 117.559 998.952 115.883 998.315 114.059C997.716 112.234 997.417 110.41 997.417 108.585V107.58C997.417 105.681 997.716 103.819 998.315 101.995C998.952 100.17 999.888 98.5319 1001.12 97.0798C1002.4 95.5904 1003.97 94.3989 1005.84 93.5053C1007.71 92.6117 1009.9 92.1649 1012.41 92.1649C1014.92 92.1649 1017.16 92.6303 1019.15 93.5612C1021.17 94.492 1022.78 95.8138 1023.98 97.5266C1025.21 99.2021 1025.9 101.194 1026.05 103.503H1020.89C1020.63 101.641 1019.77 100.096 1018.31 98.867C1016.85 97.6011 1014.88 96.9681 1012.41 96.9681C1010.28 96.9681 1008.5 97.4521 1007.08 98.4202C1005.65 99.3883 1004.59 100.71 1003.87 102.386C1003.16 104.061 1002.81 105.96 1002.81 108.082C1002.81 110.13 1003.16 112.011 1003.87 113.723C1004.59 115.399 1005.65 116.739 1007.08 117.745C1008.53 118.713 1010.35 119.197 1012.52 119.197C1014.21 119.197 1015.67 118.899 1016.9 118.303C1018.14 117.707 1019.13 116.907 1019.88 115.902C1020.63 114.896 1021.08 113.761 1021.23 112.495H1026.39C1026.28 114.84 1025.59 116.87 1024.31 118.582C1023.08 120.295 1021.43 121.636 1019.37 122.604C1017.35 123.535 1015.07 124 1012.52 124Z" fill="#068FB4"/>
<path d="M1045.4 123.33C1043.15 123.33 1041.2 123.013 1039.56 122.38C1037.95 121.747 1036.69 120.668 1035.79 119.141C1034.93 117.577 1034.5 115.473 1034.5 112.83V84.1223H1039.67V113.5C1039.67 115.101 1040.1 116.348 1040.96 117.242C1041.86 118.098 1043.11 118.527 1044.72 118.527H1050V123.33H1045.4ZM1029.34 97.1915V93.1702H1050V97.1915H1029.34Z" fill="#068FB4"/>
<path d="M212 100L135 254L46 98L212 100Z" fill="url(#paint0_linear_47_208)"/>
<path d="M133 0L212 100L46 98L133 0Z" fill="url(#paint1_linear_47_208)"/>
<path d="M0 76.5L133 0L46 98L0 76.5Z" fill="url(#paint2_radial_47_208)"/>
<path d="M133 0L263 72L212 100L133 0Z" fill="url(#paint3_linear_47_208)"/>
<path d="M0 76.5L46 98L0 229V76.5Z" fill="url(#paint4_linear_47_208)"/>
<path d="M46 98L135 254L0 229L46 98Z" fill="url(#paint5_linear_47_208)"/>
<path d="M212 100L263.5 229L135 254L212 100Z" fill="url(#paint6_linear_47_208)"/>
<path d="M263 72L263.5 229L212 100L263 72Z" fill="url(#paint7_linear_47_208)"/>
<path d="M135 254L134.5 303L0 229L135 254Z" fill="url(#paint8_linear_47_208)"/>
<path d="M135 254L263.5 229L134.5 303L135 254Z" fill="url(#paint9_linear_47_208)"/>
<g style="mix-blend-mode:soft-light" opacity="0.35">
<path d="M51.5 205L133 51L217.5 207L51.5 205Z" fill="url(#paint10_linear_47_208)"/>
<path d="M130.5 305L51.5 205L217.5 207L130.5 305Z" fill="url(#paint11_linear_47_208)"/>
<path d="M263.5 229L130.5 305L217.5 207L263.5 229Z" fill="url(#paint12_radial_47_208)"/>
<path d="M130.5 305L-3.71617e-05 229L51.5 205L130.5 305Z" fill="url(#paint13_linear_47_208)"/>
<path d="M263.5 229L217.5 207L263 72L263.5 229Z" fill="url(#paint14_linear_47_208)"/>
<path d="M217.5 207L133 51L263 72L217.5 207Z" fill="url(#paint15_linear_47_208)"/>
<path d="M51.4999 205L-1.12338e-05 76.5L133 51L51.4999 205Z" fill="url(#paint16_linear_47_208)"/>
<path d="M-3.8147e-06 229L-1.88788e-06 76.5L51.5 205L-3.8147e-06 229Z" fill="url(#paint17_linear_47_208)"/>
<path d="M133 51L133 -3.89383e-06L263 72L133 51Z" fill="url(#paint18_linear_47_208)"/>
<path d="M133 51.0001L0 76.5L133 0.000152588L133 51.0001Z" fill="url(#paint19_linear_47_208)"/>
</g>
<g style="mix-blend-mode:soft-light" opacity="0.35">
<path d="M51.5 205L133 51L217.5 207L51.5 205Z" fill="url(#paint20_linear_47_208)"/>
<path d="M130.5 305L51.5 205L217.5 207L130.5 305Z" fill="url(#paint21_linear_47_208)"/>
<path d="M263.5 229L130.5 305L217.5 207L263.5 229Z" fill="url(#paint22_radial_47_208)"/>
<path d="M130.5 305L-3.71617e-05 229L51.5 205L130.5 305Z" fill="url(#paint23_linear_47_208)"/>
<path d="M263.5 229L217.5 207L263 72L263.5 229Z" fill="url(#paint24_linear_47_208)"/>
<path d="M217.5 207L133 51L263 72L217.5 207Z" fill="url(#paint25_linear_47_208)"/>
<path d="M51.4999 205L-1.12338e-05 76.5L133 51L51.4999 205Z" fill="url(#paint26_linear_47_208)"/>
<path d="M-3.8147e-06 229L-1.88788e-06 76.5L51.5 205L-3.8147e-06 229Z" fill="url(#paint27_linear_47_208)"/>
<path d="M133 51L133 -3.89383e-06L263 72L133 51Z" fill="url(#paint28_linear_47_208)"/>
<path d="M133 51.0001L0 76.5L133 0.000152588L133 51.0001Z" fill="url(#paint29_linear_47_208)"/>
</g>
<g style="mix-blend-mode:overlay">
<path d="M212 100L135 254L46 98L212 100Z" fill="url(#paint30_radial_47_208)"/>
<path d="M133 0L212 100L46 98L133 0Z" fill="url(#paint31_radial_47_208)"/>
<path d="M0 76.5L133 0L46 98L0 76.5Z" fill="url(#paint32_radial_47_208)"/>
<path d="M133 0L263 72L212 100L133 0Z" fill="url(#paint33_radial_47_208)"/>
<path d="M0 76.5L46 98L0 229V76.5Z" fill="url(#paint34_radial_47_208)"/>
<path d="M46 98L135 254L0 229L46 98Z" fill="url(#paint35_radial_47_208)"/>
<path d="M212 100L263.5 229L135 254L212 100Z" fill="url(#paint36_radial_47_208)"/>
<path d="M263 72L263.5 229L212 100L263 72Z" fill="url(#paint37_radial_47_208)"/>
<path d="M135 254L134.5 303L0 229L135 254Z" fill="url(#paint38_radial_47_208)"/>
<path d="M135 254L263.5 229L134.5 303L135 254Z" fill="url(#paint39_radial_47_208)"/>
<g style="mix-blend-mode:soft-light" opacity="0.35">
<path d="M51.5 205L133 51L217.5 207L51.5 205Z" fill="url(#paint40_radial_47_208)"/>
<path d="M130.5 305L51.5 205L217.5 207L130.5 305Z" fill="url(#paint41_radial_47_208)"/>
<path d="M263.5 229L130.5 305L217.5 207L263.5 229Z" fill="url(#paint42_radial_47_208)"/>
<path d="M130.5 305L-3.71617e-05 229L51.5 205L130.5 305Z" fill="url(#paint43_radial_47_208)"/>
<path d="M263.5 229L217.5 207L263 72L263.5 229Z" fill="url(#paint44_radial_47_208)"/>
<path d="M217.5 207L133 51L263 72L217.5 207Z" fill="url(#paint45_radial_47_208)"/>
<path d="M51.4999 205L-1.12338e-05 76.5L133 51L51.4999 205Z" fill="url(#paint46_radial_47_208)"/>
<path d="M-3.8147e-06 229L-1.88788e-06 76.5L51.5 205L-3.8147e-06 229Z" fill="url(#paint47_radial_47_208)"/>
<path d="M133 51L133 -3.89383e-06L263 72L133 51Z" fill="url(#paint48_radial_47_208)"/>
<path d="M133 51.0001L0 76.5L133 0.000152588L133 51.0001Z" fill="url(#paint49_radial_47_208)"/>
</g>
<g style="mix-blend-mode:soft-light" opacity="0.35">
<path d="M51.5 205L133 51L217.5 207L51.5 205Z" fill="url(#paint50_radial_47_208)"/>
<path d="M130.5 305L51.5 205L217.5 207L130.5 305Z" fill="url(#paint51_radial_47_208)"/>
<path d="M263.5 229L130.5 305L217.5 207L263.5 229Z" fill="url(#paint52_radial_47_208)"/>
<path d="M130.5 305L-3.71617e-05 229L51.5 205L130.5 305Z" fill="url(#paint53_radial_47_208)"/>
<path d="M263.5 229L217.5 207L263 72L263.5 229Z" fill="url(#paint54_radial_47_208)"/>
<path d="M217.5 207L133 51L263 72L217.5 207Z" fill="url(#paint55_radial_47_208)"/>
<path d="M51.4999 205L-1.12338e-05 76.5L133 51L51.4999 205Z" fill="url(#paint56_radial_47_208)"/>
<path d="M-3.8147e-06 229L-1.88788e-06 76.5L51.5 205L-3.8147e-06 229Z" fill="url(#paint57_radial_47_208)"/>
<path d="M133 51L133 -3.89383e-06L263 72L133 51Z" fill="url(#paint58_radial_47_208)"/>
<path d="M133 51.0001L0 76.5L133 0.000152588L133 51.0001Z" fill="url(#paint59_radial_47_208)"/>
</g>
</g>
<defs>
<linearGradient id="paint0_linear_47_208" x1="129.25" y1="98" x2="129.25" y2="254" gradientUnits="userSpaceOnUse">
<stop stop-color="#397C8B"/>
<stop offset="1" stop-color="#92C5C5"/>
</linearGradient>
<linearGradient id="paint1_linear_47_208" x1="129.208" y1="1" x2="129.208" y2="100" gradientUnits="userSpaceOnUse">
<stop stop-color="#82C4CB"/>
<stop offset="1" stop-color="#DAF7F9"/>
</linearGradient>
<radialGradient id="paint2_radial_47_208" cx="0" cy="0" r="1" gradientUnits="userSpaceOnUse" gradientTransform="translate(66.25 49) rotate(90) scale(49 66.75)">
<stop stop-color="#0B636D"/>
<stop offset="1" stop-color="#61999A"/>
</radialGradient>
<linearGradient id="paint3_linear_47_208" x1="176" y1="50" x2="209.5" y2="28" gradientUnits="userSpaceOnUse">
<stop stop-color="#056F7D"/>
<stop offset="1" stop-color="#82C4CB"/>
</linearGradient>
<linearGradient id="paint4_linear_47_208" x1="23" y1="76.5" x2="23" y2="229" gradientUnits="userSpaceOnUse">
<stop stop-color="#086068"/>
<stop offset="1" stop-color="#4C8888"/>
</linearGradient>
<linearGradient id="paint5_linear_47_208" x1="67.5" y1="98" x2="67.5" y2="254" gradientUnits="userSpaceOnUse">
<stop stop-color="#82C4CB"/>
<stop offset="1" stop-color="#19777F"/>
</linearGradient>
<linearGradient id="paint6_linear_47_208" x1="218" y1="144" x2="155" y2="277.5" gradientUnits="userSpaceOnUse">
<stop stop-color="#97C9CA"/>
<stop offset="0.9999" stop-color="#408382"/>
<stop offset="1" stop-color="#408382" stop-opacity="0"/>
<stop offset="1" stop-color="#0B636D"/>
</linearGradient>
<linearGradient id="paint7_linear_47_208" x1="212" y1="102.5" x2="263" y2="181.5" gradientUnits="userSpaceOnUse">
<stop stop-color="#7EA0B7"/>
<stop offset="1" stop-color="#97C9CA"/>
</linearGradient>
<linearGradient id="paint8_linear_47_208" x1="67.5" y1="229" x2="67.5" y2="303" gradientUnits="userSpaceOnUse">
<stop stop-color="#82C4CB"/>
<stop offset="1" stop-color="#61999A"/>
</linearGradient>
<linearGradient id="paint9_linear_47_208" x1="199" y1="229" x2="199" y2="303" gradientUnits="userSpaceOnUse">
<stop stop-color="#97C9CA"/>
<stop offset="1" stop-color="#7EA0B7"/>
</linearGradient>
<linearGradient id="paint10_linear_47_208" x1="134.25" y1="207" x2="134.25" y2="51" gradientUnits="userSpaceOnUse">
<stop stop-color="#397C8B"/>
<stop offset="1" stop-color="#92C5C5"/>
</linearGradient>
<linearGradient id="paint11_linear_47_208" x1="134.292" y1="304" x2="134.292" y2="205" gradientUnits="userSpaceOnUse">
<stop stop-color="#82C4CB"/>
<stop offset="1" stop-color="#DAF7F9"/>
</linearGradient>
<radialGradient id="paint12_radial_47_208" cx="0" cy="0" r="1" gradientUnits="userSpaceOnUse" gradientTransform="translate(197.25 256) rotate(-90) scale(49 66.75)">
<stop stop-color="#0B636D"/>
<stop offset="1" stop-color="#61999A"/>
</radialGradient>
<linearGradient id="paint13_linear_47_208" x1="87.5" y1="255" x2="54" y2="277" gradientUnits="userSpaceOnUse">
<stop stop-color="#056F7D"/>
<stop offset="1" stop-color="#82C4CB"/>
</linearGradient>
<linearGradient id="paint14_linear_47_208" x1="240.5" y1="228.5" x2="240.5" y2="76" gradientUnits="userSpaceOnUse">
<stop stop-color="#086068"/>
<stop offset="1" stop-color="#4C8888"/>
</linearGradient>
<linearGradient id="paint15_linear_47_208" x1="196" y1="207" x2="196" y2="51" gradientUnits="userSpaceOnUse">
<stop stop-color="#82C4CB"/>
<stop offset="1" stop-color="#19777F"/>
</linearGradient>
<linearGradient id="paint16_linear_47_208" x1="45.5" y1="161" x2="108.5" y2="27.5" gradientUnits="userSpaceOnUse">
<stop stop-color="#97C9CA"/>
<stop offset="0.9999" stop-color="#408382"/>
<stop offset="1" stop-color="#408382" stop-opacity="0"/>
<stop offset="1" stop-color="#0B636D"/>
</linearGradient>
<linearGradient id="paint17_linear_47_208" x1="52" y1="202.889" x2="1.71333" y2="124.754" gradientUnits="userSpaceOnUse">
<stop stop-color="#7EA0B7"/>
<stop offset="1" stop-color="#97C9CA"/>
</linearGradient>
<linearGradient id="paint18_linear_47_208" x1="198.5" y1="76" x2="198.5" y2="5.66857e-06" gradientUnits="userSpaceOnUse">
<stop stop-color="#82C4CB"/>
<stop offset="1" stop-color="#61999A"/>
</linearGradient>
<linearGradient id="paint19_linear_47_208" x1="64.5" y1="76" x2="64.5" y2="1.99999" gradientUnits="userSpaceOnUse">
<stop stop-color="#97C9CA"/>
<stop offset="1" stop-color="#7EA0B7"/>
</linearGradient>
<linearGradient id="paint20_linear_47_208" x1="134.25" y1="207" x2="134.25" y2="51" gradientUnits="userSpaceOnUse">
<stop stop-color="#397C8B"/>
<stop offset="1" stop-color="#92C5C5"/>
</linearGradient>
<linearGradient id="paint21_linear_47_208" x1="134.292" y1="304" x2="134.292" y2="205" gradientUnits="userSpaceOnUse">
<stop stop-color="#82C4CB"/>
<stop offset="1" stop-color="#DAF7F9"/>
</linearGradient>
<radialGradient id="paint22_radial_47_208" cx="0" cy="0" r="1" gradientUnits="userSpaceOnUse" gradientTransform="translate(197.25 256) rotate(-90) scale(49 66.75)">
<stop stop-color="#0B636D"/>
<stop offset="1" stop-color="#61999A"/>
</radialGradient>
<linearGradient id="paint23_linear_47_208" x1="87.5" y1="255" x2="54" y2="277" gradientUnits="userSpaceOnUse">
<stop stop-color="#056F7D"/>
<stop offset="1" stop-color="#82C4CB"/>
</linearGradient>
<linearGradient id="paint24_linear_47_208" x1="240.5" y1="228.5" x2="240.5" y2="76" gradientUnits="userSpaceOnUse">
<stop stop-color="#086068"/>
<stop offset="1" stop-color="#4C8888"/>
</linearGradient>
<linearGradient id="paint25_linear_47_208" x1="196" y1="207" x2="196" y2="51" gradientUnits="userSpaceOnUse">
<stop stop-color="#82C4CB"/>
<stop offset="1" stop-color="#19777F"/>
</linearGradient>
<linearGradient id="paint26_linear_47_208" x1="45.5" y1="161" x2="108.5" y2="27.5" gradientUnits="userSpaceOnUse">
<stop stop-color="#97C9CA"/>
<stop offset="0.9999" stop-color="#408382"/>
<stop offset="1" stop-color="#408382" stop-opacity="0"/>
<stop offset="1" stop-color="#0B636D"/>
</linearGradient>
<linearGradient id="paint27_linear_47_208" x1="52" y1="202.889" x2="1.71333" y2="124.754" gradientUnits="userSpaceOnUse">
<stop stop-color="#7EA0B7"/>
<stop offset="1" stop-color="#97C9CA"/>
</linearGradient>
<linearGradient id="paint28_linear_47_208" x1="198.5" y1="76" x2="198.5" y2="5.66857e-06" gradientUnits="userSpaceOnUse">
<stop stop-color="#82C4CB"/>
<stop offset="1" stop-color="#61999A"/>
</linearGradient>
<linearGradient id="paint29_linear_47_208" x1="64.5" y1="76" x2="64.5" y2="1.99999" gradientUnits="userSpaceOnUse">
<stop stop-color="#97C9CA"/>
<stop offset="1" stop-color="#7EA0B7"/>
</linearGradient>
<radialGradient id="paint30_radial_47_208" cx="0" cy="0" r="1" gradientUnits="userSpaceOnUse" gradientTransform="translate(128.688 176) rotate(90) scale(78 83.312)">
<stop stop-color="#0B266D"/>
<stop offset="1" stop-color="#616A9A"/>
</radialGradient>
<radialGradient id="paint31_radial_47_208" cx="0" cy="0" r="1" gradientUnits="userSpaceOnUse" gradientTransform="translate(128.688 50) rotate(90) scale(50 83.312)">
<stop stop-color="#0B266D"/>
<stop offset="1" stop-color="#616A9A"/>
</radialGradient>
<radialGradient id="paint32_radial_47_208" cx="0" cy="0" r="1" gradientUnits="userSpaceOnUse" gradientTransform="translate(66.25 49) rotate(90) scale(49 66.75)">
<stop stop-color="#0B266D"/>
<stop offset="1" stop-color="#616A9A"/>
</radialGradient>
<radialGradient id="paint33_radial_47_208" cx="0" cy="0" r="1" gradientUnits="userSpaceOnUse" gradientTransform="translate(197.756 50) rotate(90) scale(50 65.2444)">
<stop stop-color="#0B266D"/>
<stop offset="1" stop-color="#616A9A"/>
</radialGradient>
<radialGradient id="paint34_radial_47_208" cx="0" cy="0" r="1" gradientUnits="userSpaceOnUse" gradientTransform="translate(22.9135 152.75) rotate(90) scale(76.25 23.0865)">
<stop stop-color="#0B266D"/>
<stop offset="1" stop-color="#616A9A"/>
</radialGradient>
<radialGradient id="paint35_radial_47_208" cx="0" cy="0" r="1" gradientUnits="userSpaceOnUse" gradientTransform="translate(67.2462 176) rotate(90) scale(78 67.7538)">
<stop stop-color="#0B266D"/>
<stop offset="1" stop-color="#616A9A"/>
</radialGradient>
<radialGradient id="paint36_radial_47_208" cx="0" cy="0" r="1" gradientUnits="userSpaceOnUse" gradientTransform="translate(199.008 177) rotate(90) scale(77 64.4915)">
<stop stop-color="#0B266D"/>
<stop offset="1" stop-color="#616A9A"/>
</radialGradient>
<radialGradient id="paint37_radial_47_208" cx="0" cy="0" r="1" gradientUnits="userSpaceOnUse" gradientTransform="translate(237.653 150.5) rotate(90) scale(78.5 25.8468)">
<stop stop-color="#0B266D"/>
<stop offset="1" stop-color="#616A9A"/>
</radialGradient>
<radialGradient id="paint38_radial_47_208" cx="0" cy="0" r="1" gradientUnits="userSpaceOnUse" gradientTransform="translate(67.2462 266) rotate(90) scale(37 67.7538)">
<stop stop-color="#0B266D"/>
<stop offset="1" stop-color="#616A9A"/>
</radialGradient>
<radialGradient id="paint39_radial_47_208" cx="0" cy="0" r="1" gradientUnits="userSpaceOnUse" gradientTransform="translate(198.758 266) rotate(90) scale(37 64.7425)">
<stop stop-color="#0B266D"/>
<stop offset="1" stop-color="#616A9A"/>
</radialGradient>
<radialGradient id="paint40_radial_47_208" cx="0" cy="0" r="1" gradientUnits="userSpaceOnUse" gradientTransform="translate(134.812 129) rotate(-90) scale(78 83.312)">
<stop stop-color="#0B266D"/>
<stop offset="1" stop-color="#616A9A"/>
</radialGradient>
<radialGradient id="paint41_radial_47_208" cx="0" cy="0" r="1" gradientUnits="userSpaceOnUse" gradientTransform="translate(134.812 255) rotate(-90) scale(50 83.312)">
<stop stop-color="#0B266D"/>
<stop offset="1" stop-color="#616A9A"/>
</radialGradient>
<radialGradient id="paint42_radial_47_208" cx="0" cy="0" r="1" gradientUnits="userSpaceOnUse" gradientTransform="translate(197.25 256) rotate(-90) scale(49 66.75)">
<stop stop-color="#0B266D"/>
<stop offset="1" stop-color="#616A9A"/>
</radialGradient>
<radialGradient id="paint43_radial_47_208" cx="0" cy="0" r="1" gradientUnits="userSpaceOnUse" gradientTransform="translate(65.4953 255) rotate(-90) scale(50 65.4953)">
<stop stop-color="#0B266D"/>
<stop offset="1" stop-color="#616A9A"/>
</radialGradient>
<radialGradient id="paint44_radial_47_208" cx="0" cy="0" r="1" gradientUnits="userSpaceOnUse" gradientTransform="translate(240.586 150.5) rotate(-90) scale(78.5 23.0865)">
<stop stop-color="#0B266D"/>
<stop offset="1" stop-color="#616A9A"/>
</radialGradient>
<radialGradient id="paint45_radial_47_208" cx="0" cy="0" r="1" gradientUnits="userSpaceOnUse" gradientTransform="translate(198.244 129) rotate(-90) scale(78 65.2444)">
<stop stop-color="#0B266D"/>
<stop offset="1" stop-color="#616A9A"/>
</radialGradient>
<radialGradient id="paint46_radial_47_208" cx="0" cy="0" r="1" gradientUnits="userSpaceOnUse" gradientTransform="translate(66.75 128) rotate(-90) scale(77 66.75)">
<stop stop-color="#0B266D"/>
<stop offset="1" stop-color="#616A9A"/>
</radialGradient>
<radialGradient id="paint47_radial_47_208" cx="0" cy="0" r="1" gradientUnits="userSpaceOnUse" gradientTransform="translate(25.8468 152.75) rotate(-90) scale(76.25 25.8468)">
<stop stop-color="#0B266D"/>
<stop offset="1" stop-color="#616A9A"/>
</radialGradient>
<radialGradient id="paint48_radial_47_208" cx="0" cy="0" r="1" gradientUnits="userSpaceOnUse" gradientTransform="translate(198.244 36) rotate(-90) scale(36 65.2444)">
<stop stop-color="#0B266D"/>
<stop offset="1" stop-color="#616A9A"/>
</radialGradient>
<radialGradient id="paint49_radial_47_208" cx="0" cy="0" r="1" gradientUnits="userSpaceOnUse" gradientTransform="translate(66.75 38.2501) rotate(-90) scale(38.2499 66.75)">
<stop stop-color="#0B266D"/>
<stop offset="1" stop-color="#616A9A"/>
</radialGradient>
<radialGradient id="paint50_radial_47_208" cx="0" cy="0" r="1" gradientUnits="userSpaceOnUse" gradientTransform="translate(134.812 129) rotate(-90) scale(78 83.312)">
<stop stop-color="#0B266D"/>
<stop offset="1" stop-color="#616A9A"/>
</radialGradient>
<radialGradient id="paint51_radial_47_208" cx="0" cy="0" r="1" gradientUnits="userSpaceOnUse" gradientTransform="translate(134.812 255) rotate(-90) scale(50 83.312)">
<stop stop-color="#0B266D"/>
<stop offset="1" stop-color="#616A9A"/>
</radialGradient>
<radialGradient id="paint52_radial_47_208" cx="0" cy="0" r="1" gradientUnits="userSpaceOnUse" gradientTransform="translate(197.25 256) rotate(-90) scale(49 66.75)">
<stop stop-color="#0B266D"/>
<stop offset="1" stop-color="#616A9A"/>
</radialGradient>
<radialGradient id="paint53_radial_47_208" cx="0" cy="0" r="1" gradientUnits="userSpaceOnUse" gradientTransform="translate(65.4953 255) rotate(-90) scale(50 65.4953)">
<stop stop-color="#0B266D"/>
<stop offset="1" stop-color="#616A9A"/>
</radialGradient>
<radialGradient id="paint54_radial_47_208" cx="0" cy="0" r="1" gradientUnits="userSpaceOnUse" gradientTransform="translate(240.586 150.5) rotate(-90) scale(78.5 23.0865)">
<stop stop-color="#0B266D"/>
<stop offset="1" stop-color="#616A9A"/>
</radialGradient>
<radialGradient id="paint55_radial_47_208" cx="0" cy="0" r="1" gradientUnits="userSpaceOnUse" gradientTransform="translate(198.244 129) rotate(-90) scale(78 65.2444)">
<stop stop-color="#0B266D"/>
<stop offset="1" stop-color="#616A9A"/>
</radialGradient>
<radialGradient id="paint56_radial_47_208" cx="0" cy="0" r="1" gradientUnits="userSpaceOnUse" gradientTransform="translate(66.75 128) rotate(-90) scale(77 66.75)">
<stop stop-color="#0B266D"/>
<stop offset="1" stop-color="#616A9A"/>
</radialGradient>
<radialGradient id="paint57_radial_47_208" cx="0" cy="0" r="1" gradientUnits="userSpaceOnUse" gradientTransform="translate(25.8468 152.75) rotate(-90) scale(76.25 25.8468)">
<stop stop-color="#0B266D"/>
<stop offset="1" stop-color="#616A9A"/>
</radialGradient>
<radialGradient id="paint58_radial_47_208" cx="0" cy="0" r="1" gradientUnits="userSpaceOnUse" gradientTransform="translate(198.244 36) rotate(-90) scale(36 65.2444)">
<stop stop-color="#0B266D"/>
<stop offset="1" stop-color="#616A9A"/>
</radialGradient>
<radialGradient id="paint59_radial_47_208" cx="0" cy="0" r="1" gradientUnits="userSpaceOnUse" gradientTransform="translate(66.75 38.2501) rotate(-90) scale(38.2499 66.75)">
<stop stop-color="#0B266D"/>
<stop offset="1" stop-color="#616A9A"/>
</radialGradient>
</defs>
</svg>
